<svg xmlns="http://www.w3.org/2000/svg" version="1.1" xmlns:xlink="http://www.w3.org/1999/xlink" xmlns:svgjs="http://svgjs.dev/svgjs" width="1500" height="371" viewBox="0 0 1500 371"><g transform="matrix(1,0,0,1,-0.9086150712805647,0.1971108283005094)"><svg viewBox="0 0 396 98" data-background-color="#ffffff" preserveAspectRatio="xMidYMid meet" height="371" width="1500" xmlns="http://www.w3.org/2000/svg" xmlns:xlink="http://www.w3.org/1999/xlink"><g id="tight-bounds" transform="matrix(1,0,0,1,0.24017996326386992,-0.052067011249192774)"><svg viewBox="0 0 395.52 98.1041340224984" height="98.1041340224984" width="395.52"><g><svg viewBox="0 0 395.52 98.1041340224984" height="98.1041340224984" width="395.52"><g transform="matrix(1,0,0,1,0,64.36634149375438)"><svg viewBox="0 0 395.52 33.73779252874402" height="33.73779252874402" width="395.52"><g id="textblocktransform"><svg viewBox="0 0 395.52 33.73779252874402" height="33.73779252874402" width="395.52" id="textblock"><g><svg viewBox="0 0 395.52 33.73779252874402" height="33.73779252874402" width="395.52"><g transform="matrix(1,0,0,1,0,0)"><svg width="395.52" viewBox="0.7904443456701142 -32.33018381452943 575.2101742451323 49.065328455607286" height="33.73779252874402" data-palette-color="#3d9970"><path d="M0.872-1.97v0c-0.171-2.233-0.075-4.303 0.288-6.21 0.356-1.899 0.904-3.529 1.642-4.89 0.732-1.353 1.648-2.576 2.749-3.67 1.099-1.1 2.247-2 3.444-2.7 1.203-0.7 2.505-1.301 3.904-1.803 1.406-0.495 2.726-0.86 3.958-1.095 1.239-0.235 2.497-0.401 3.773-0.498v0c0.944-0.072 1.868-0.099 2.772-0.082 0.903 0.011 1.925 0.074 3.063 0.187 1.146 0.12 2.223 0.352 3.232 0.696 1.016 0.344 1.996 0.787 2.94 1.33 0.944 0.536 1.785 1.261 2.523 2.174 0.738 0.913 1.3 1.967 1.686 3.161v0c0.115 0.459 0.376 1.773 0.783 3.942v0c-0.023 0.49-0.523 0.772-1.5 0.846v0c-1.389 0.106-3.416 0.231-6.079 0.375-2.657 0.136-4.651 0.255-5.981 0.356v0c-0.198-0.052-0.361-0.17-0.488-0.354-0.128-0.184-0.22-0.391-0.278-0.62-0.057-0.223-0.142-0.461-0.255-0.713-0.106-0.253-0.237-0.473-0.392-0.662-0.155-0.189-0.41-0.34-0.766-0.453-0.356-0.113-0.794-0.15-1.313-0.11v0c-0.685 0.052-1.284 0.215-1.798 0.488-0.513 0.28-0.93 0.603-1.25 0.968-0.313 0.365-0.567 0.849-0.761 1.453-0.202 0.597-0.344 1.14-0.427 1.627-0.083 0.488-0.13 1.103-0.14 1.846-0.01 0.743-0.002 1.324 0.023 1.743 0.026 0.426 0.065 0.985 0.118 1.676v0c0.016 0.213 0.043 0.471 0.079 0.776 0.044 0.311 0.07 0.523 0.079 0.636v0l0.055 0.728c0.04 0.518 0.079 0.947 0.119 1.285 0.039 0.338 0.116 0.77 0.229 1.296 0.114 0.533 0.252 0.977 0.413 1.332 0.154 0.349 0.373 0.72 0.657 1.114 0.285 0.399 0.619 0.708 1.003 0.926 0.378 0.225 0.85 0.403 1.415 0.534 0.564 0.124 1.196 0.159 1.893 0.106v0c1.795-0.137 3.254-0.426 4.377-0.866v0l-0.227-2.972-1.067 0.082 0.004 0.05-1.745 0.133c-0.133 0.01-0.365 0.038-0.696 0.083-0.331 0.039-0.6 0.066-0.806 0.082v0l-0.951-0.9-0.513-6.711c-0.032-0.419 0.226-0.893 0.774-1.423v0l1.745-0.133c1.216-0.093 2.69-0.189 4.421-0.288 1.737-0.099 3.068-0.184 3.992-0.255v0l1.944-0.148c0.937-0.072 1.669-0.121 2.196-0.148 0.527-0.02 1.121 0.011 1.782 0.095 0.655 0.09 1.1 0.264 1.333 0.519v0c0.163 2.127 0.349 5.225 0.56 9.295 0.217 4.069 0.396 7.02 0.536 8.855v0c0.004 0.047 0.016 0.122 0.038 0.227 0.028 0.105 0.044 0.187 0.049 0.247v0l0.041 0.539c-0.502 0.694-2.257 1.399-5.264 2.117-3.007 0.718-5.548 1.156-7.622 1.315v0l-0.628 0.048c-0.459 0.035-1.131 0.117-2.017 0.244-0.886 0.135-1.554 0.219-2.007 0.254v0c-6.521 0.498-11.646-0.865-15.376-4.091-3.723-3.226-5.818-7.89-6.285-13.991zM41.258-5.134v0l-0.173-2.675c0.019-2.279 0.381-4.38 1.084-6.303 0.703-1.93 1.652-3.574 2.847-4.934 1.187-1.366 2.588-2.543 4.201-3.529 1.613-0.993 3.317-1.751 5.114-2.276 1.797-0.524 3.666-0.849 5.608-0.974v0c1.071-0.069 2.191-0.052 3.361 0.053 1.169 0.105 2.415 0.308 3.737 0.609 1.323 0.308 2.604 0.8 3.843 1.475 1.24 0.675 2.282 1.499 3.127 2.473v0c1.73 1.852 3.027 3.829 3.891 5.931 0.858 2.102 1.372 4.467 1.542 7.095v0c0.401 5.472-0.514 9.957-2.746 13.456v0l-0.973 1.526c-0.854 1.358-2.128 2.526-3.821 3.504-1.693 0.985-3.404 1.697-5.133 2.136-1.728 0.446-3.484 0.727-5.267 0.843v0c-2.096 0.136-4.038 0.051-5.828-0.254-1.797-0.304-3.357-0.771-4.681-1.401-1.331-0.635-2.531-1.429-3.601-2.382-1.071-0.959-1.962-1.984-2.674-3.073-0.712-1.096-1.318-2.293-1.816-3.59-0.499-1.304-0.875-2.582-1.131-3.835-0.255-1.253-0.425-2.544-0.511-3.875zM59.993-16.018v0c-0.665 0.043-1.251 0.238-1.755 0.584-0.512 0.341-0.921 0.741-1.225 1.202-0.305 0.454-0.553 1.058-0.745 1.812-0.198 0.754-0.335 1.431-0.409 2.031-0.075 0.599-0.113 1.35-0.115 2.252-0.008 0.902 0 1.603 0.026 2.103 0.019 0.493 0.053 1.129 0.104 1.907v0c0.048 0.745 0.124 1.452 0.227 2.12 0.097 0.668 0.263 1.373 0.498 2.112 0.235 0.746 0.524 1.389 0.866 1.928 0.336 0.539 0.778 0.982 1.329 1.327 0.55 0.345 1.166 0.512 1.846 0.501v0c0.712-0.046 1.336-0.203 1.873-0.472 0.537-0.269 0.98-0.598 1.329-0.988 0.349-0.39 0.633-0.903 0.853-1.538 0.22-0.629 0.381-1.231 0.484-1.805 0.103-0.581 0.16-1.293 0.172-2.136 0.018-0.85 0.018-1.578-0.001-2.184-0.026-0.613-0.069-1.382-0.129-2.307v0c-0.044-0.679-0.105-1.309-0.183-1.892-0.077-0.576-0.186-1.221-0.326-1.933-0.146-0.705-0.349-1.32-0.61-1.844-0.262-0.531-0.571-1.025-0.928-1.483-0.357-0.458-0.807-0.8-1.349-1.025-0.542-0.225-1.153-0.316-1.832-0.272zM79.596 10.731v0c0.808-3.768 1.719-7.599 2.734-11.492 1.015-3.893 2.283-8.55 3.805-13.971 1.528-5.422 2.57-9.173 3.127-11.252v0c0.176-0.336 0.295-0.54 0.358-0.61v0l4.084-0.217c0.959-0.051 2.369-0.139 4.232-0.265 1.862-0.132 3.273-0.224 4.232-0.275v0l4.084-0.217c0.24-0.013 0.443-0.02 0.61-0.022 0.16-0.002 0.354 0.008 0.582 0.029 0.228 0.021 0.414 0.061 0.557 0.121 0.143 0.052 0.265 0.143 0.365 0.271 0.107 0.121 0.165 0.272 0.174 0.451v0l13.103 34.944c0.017 0.326-0.087 0.555-0.314 0.688-0.233 0.133-0.673 0.216-1.319 0.25v0l-2.237 0.119c-0.652 0.035-1.617 0.096-2.894 0.184-1.277 0.081-2.242 0.139-2.895 0.174v0c-0.193 0.01-0.585 0.044-1.176 0.102-0.591 0.058-1.09 0.091-1.497 0.1-0.406 0.015-0.857 0.015-1.352 0.002-0.495-0.014-0.896-0.083-1.203-0.207-0.313-0.117-0.516-0.286-0.607-0.508v0l-0.086-1.608c-0.203-0.804-0.525-1.534-0.967-2.192-0.443-0.664-0.89-0.984-1.343-0.96v0l-8.368 0.445-0.994 5.23c-0.159 0.396-1.058 0.637-2.696 0.724v0l-1.947 0.103c-0.692 0.037-1.726 0.118-3.101 0.245-1.376 0.12-2.413 0.198-3.112 0.235v0l-0.679 0.037c-0.26 0.014-0.669 0.042-1.228 0.085-0.558 0.05-0.994 0.083-1.306 0.099v0c-0.134-0.126-0.375-0.407-0.726-0.842zM97.197-13.477l-1.499 8.541 0.74 1.113 1.608-0.086c1.298-0.069 2.482-0.209 3.552-0.419 1.07-0.21 1.596-0.489 1.578-0.835v0l-3.89-13.843c-0.293 0.016-0.656 0.589-1.09 1.72-0.434 1.125-0.767 2.394-0.999 3.809zM121.513-24.081v0c-0.116-2.644 0.096-4.131 0.635-4.462v0c0.168 0.026 0.398 0.033 0.692 0.02v0l0.769-0.034c0.506-0.022 1.335-0.075 2.485-0.159 1.151-0.084 2.026-0.139 2.626-0.165v0c2.304-0.101 4.17-0.089 5.597 0.036 1.427 0.124 2.241 0.436 2.443 0.934v0l0.809 25.128 0.53-0.023c1.296-0.123 2.204-0.193 2.723-0.209 0.52-0.016 1.477-0.025 2.872-0.026 1.388-0.007 2.721-0.039 4-0.095v0c1.059-0.046 1.844-0.017 2.356 0.087 0.518 0.097 0.785 0.333 0.801 0.706v0l0.41 9.351c-0.188 0.589-3.792 1.037-10.812 1.344v0l-16.844 0.737c-0.418-0.549-0.654-1.449-0.709-2.701v0l-0.302-6.904c-0.089-2.031-0.204-5.036-0.344-9.013-0.141-3.978-0.255-6.979-0.344-9.004v0c-0.016-0.373-0.076-1.201-0.179-2.484-0.109-1.276-0.181-2.298-0.214-3.064zM152.418-25.401v0c-0.093-2.645 0.132-4.13 0.674-4.456v0c0.168 0.027 0.398 0.036 0.691 0.026v0l0.77-0.027c0.506-0.018 1.335-0.063 2.487-0.138 1.151-0.074 2.027-0.121 2.626-0.142v0c2.305-0.081 4.171-0.053 5.597 0.084 1.426 0.137 2.237 0.455 2.435 0.956v0l0.59 25.134 0.53-0.018c1.297-0.112 2.205-0.174 2.725-0.186 0.52-0.012 1.477-0.012 2.872 0 1.388 0.005 2.721-0.015 4-0.061v0c1.059-0.037 1.844-0.001 2.356 0.108 0.517 0.102 0.782 0.339 0.795 0.713v0l0.328 9.354c-0.193 0.587-3.8 1.004-10.823 1.25v0l-16.85 0.59c-0.413-0.553-0.641-1.455-0.685-2.707v0l-0.242-6.906c-0.071-2.032-0.16-5.037-0.266-9.016-0.106-3.979-0.195-6.981-0.266-9.006v0c-0.013-0.373-0.065-1.202-0.157-2.487-0.098-1.277-0.161-2.299-0.187-3.065zM199.481 6.283l-15.724 0.442c-0.066-4.727-0.05-8.185 0.048-10.375v0c-0.192-6.824-0.29-13.744-0.293-20.76v0c-0.105-1.364-0.167-2.37-0.185-3.016v0l-0.021-0.73c-0.08-0.711-0.127-1.297-0.139-1.757v0c-0.009-0.307 0.127-0.584 0.406-0.832v0c2.671 0.118 6.735 0.101 12.194-0.052v0c1.293-0.036 2.182-0.095 2.666-0.175v0zM205.132 6.214l-1.081-0.559-0.212-11.008c-0.111-4.032-0.129-11.716-0.054-23.054v0l-0.038-1.999c-0.007-0.353 0.052-0.564 0.177-0.634v0l16.757-0.323c0.167-0.003 0.508 0.607 1.026 1.831 0.517 1.224 1.147 2.798 1.891 4.724 0.744 1.933 1.27 3.259 1.577 3.981v0l3.581 8.852-0.182-9.448c-0.016-0.813-0.024-2.303-0.026-4.47-0.002-2.174-0.021-3.867-0.058-5.08v0c-0.009-0.46 1.286-0.715 3.886-0.765v0c0.813-0.016 1.923-0.02 3.331-0.014 1.414 0.006 2.284 0.006 2.61 0v0l1.85-0.036c0.26-0.005 0.391 0.042 0.393 0.143v0c0.187 4.511 0.361 10.972 0.523 19.383v0l0.326 16.907c-0.105 0.422-0.621 0.642-1.548 0.66v0l-0.63 0.012c-0.847 0.016-2.089 0.057-3.728 0.122-1.639 0.065-2.882 0.106-3.728 0.122v0l-7.159 0.138c-0.228-0.082-0.718-1.096-1.469-3.043v0c-0.807-2.112-2.003-5.169-3.587-9.172-1.591-3.997-2.48-6.227-2.67-6.69v0c0.018 0.953 0.039 2.38 0.063 4.279 0.017 1.9 0.034 3.33 0.052 4.29v0c0.014 0.713 0.051 1.786 0.112 3.219 0.061 1.426 0.098 2.495 0.112 3.208v0l0.059 3.069c0.014 0.747-0.302 1.126-0.948 1.139v0zM240.561-31.595l-0.002-0.1zM246.196 3.913v0l-0.008-0.92c-0.024-2.78-0.025-6.88-0.005-12.3 0.02-5.427 0.019-9.531-0.005-12.31v0l-0.086-10.08 28.349-0.242 0.068 7.99c0 0.047 0.001 0.167 0.004 0.36 0.002 0.2 0.003 0.33 0.003 0.39 0.001 0.067-0.005 0.187-0.017 0.36-0.019 0.167-0.048 0.284-0.087 0.351-0.039 0.067-0.095 0.161-0.168 0.281-0.072 0.121-0.155 0.208-0.247 0.262-0.1 0.048-0.229 0.092-0.389 0.133-0.166 0.041-0.346 0.063-0.54 0.065v0l-0.68 0.006c-4.207 0.036-8.04 0.005-11.501-0.092v0c-0.031 0.26-0.081 0.661-0.15 1.201-0.069 0.547-0.121 1.028-0.157 1.442-0.036 0.414-0.053 0.814-0.05 1.2v0l11.599-0.099c0.487-0.004 0.811 0.06 0.972 0.192 0.161 0.125 0.243 0.335 0.245 0.628v0c0.001 0.08-0.005 0.21-0.016 0.39-0.012 0.18-0.017 0.31-0.017 0.39v0c0.007 0.78 0.04 1.933 0.1 3.459 0.06 1.526 0.093 2.679 0.099 3.46v0c-0.044 0.327-0.172 0.491-0.386 0.493v0c-0.093 0.001-0.174-0.032-0.24-0.098v0c-5.131 0.304-8.93 0.466-11.397 0.487v0l-0.64 0.006 0.03 3.51c1.447-0.012 3.539-0.097 6.278-0.254 2.732-0.15 4.782-0.231 6.148-0.242v0c1.073-0.009 1.692 0.212 1.856 0.664v0l0.016 1.85c0.007 0.78 0.033 1.933 0.08 3.459 0.046 1.526 0.073 2.679 0.079 3.46v0c0.007 0.813-0.316 1.223-0.969 1.228v0c-0.84 0.007-2.14 0.008-3.901 0.003-1.753 0.002-3.083 0.006-3.99 0.014v0c-2.34 0.02-5.686 0.109-10.038 0.266-4.352 0.164-7.501 0.261-9.448 0.291v0l-0.686-0.774c-0.071-0.453-0.106-0.746-0.108-0.88zM341.94-4.198v0c-0.002 0.293 0.011 0.743 0.04 1.351 0.029 0.607 0.048 1.187 0.057 1.74 0.016 0.553 0.025 1.167 0.026 1.84 0.002 0.673-0.026 1.283-0.083 1.83-0.064 0.546-0.155 1.056-0.272 1.528-0.117 0.479-0.293 0.848-0.528 1.106-0.235 0.258-0.526 0.386-0.873 0.383v0l-11.1-0.082c-0.776-0.606-1.149-2.849-1.12-6.729v0c0.011-1.413 0.03-3.117 0.058-5.11 0.028-1.987 0.045-3.403 0.052-4.249v0l0.013-1.7c0.001-0.147-0.007-0.427-0.024-0.84-0.024-0.414-0.025-0.734-0.003-0.96v0c-0.671 2.348-1.493 5.712-2.465 10.091-0.973 4.373-1.644 7.298-2.015 8.776v0c-0.163 0.452-0.912 0.673-2.245 0.663v0l-8.63-0.064c-1.053-0.008-1.668-0.289-1.844-0.844v0l-2.264-10.197c-0.199-1.042-0.421-2.123-0.666-3.245-0.245-1.122-0.532-2.397-0.862-3.827-0.329-1.436-0.571-2.494-0.726-3.175v0c-0.239 5.192-0.368 9.154-0.388 11.887v0l-0.032 4.29c-0.014 1.913-0.008 3.357 0.017 4.331v0c-0.096 0.359-0.274 0.538-0.534 0.536v0l-2.289-0.017c-0.96-0.007-2.367-0.011-4.221-0.012-1.853 0.006-3.257 0.006-4.21-0.001v0c-0.88-0.007-1.319-0.156-1.316-0.45v0l0.269-36.149c0.001-0.147 0.039-0.273 0.112-0.379 0.074-0.106 0.188-0.189 0.342-0.248 0.154-0.052 0.304-0.094 0.451-0.126 0.147-0.032 0.334-0.051 0.561-0.056 0.227-0.005 0.413-0.01 0.56-0.016 0.147-0.012 0.333-0.011 0.56 0.004 0.233 0.008 0.38 0.013 0.44 0.013v0l2.88 0.022c4.627 0.034 7.886 0.122 9.778 0.263 1.892 0.147 3.342 0.225 4.348 0.232v0c0.37 2.176 0.963 5.411 1.778 9.704v0l1.778 9.713 4.046-19.65c0 0 0.063 0.014 0.19 0.041 0.133 0.034 0.23 0.052 0.29 0.052v0c1.74 0.013 4.307 0.009 7.7-0.013 3.394-0.021 5.96-0.026 7.7-0.012v0l3.61 0.027c0.453 0.05 0.676 0.505 0.67 1.365v0c0.236 15.742 0.364 24.53 0.384 26.363zM342.519 4.935v0c1.087-3.697 2.282-7.449 3.584-11.255 1.303-3.806 2.915-8.356 4.836-13.649 1.928-5.293 3.248-8.955 3.959-10.987v0c0.2-0.322 0.335-0.516 0.403-0.581v0l4.089 0.088c0.96 0.021 2.373 0.038 4.24 0.052 1.867 0.007 3.28 0.021 4.24 0.042v0l4.089 0.088c0.24 0.005 0.443 0.013 0.609 0.024 0.16 0.01 0.353 0.034 0.579 0.072 0.226 0.038 0.408 0.092 0.547 0.162 0.139 0.063 0.253 0.162 0.343 0.297 0.097 0.129 0.144 0.283 0.14 0.464v0l10.458 35.824c-0.007 0.327-0.129 0.547-0.364 0.662-0.243 0.115-0.687 0.165-1.334 0.152v0l-2.24-0.049c-0.653-0.014-1.62-0.025-2.899-0.033-1.28-0.014-2.247-0.029-2.9-0.042v0c-0.193-0.004-0.587 0.001-1.181 0.014-0.594 0.014-1.094 0.01-1.5-0.012-0.406-0.015-0.856-0.049-1.348-0.099-0.492-0.051-0.887-0.149-1.184-0.296-0.304-0.14-0.493-0.324-0.568-0.553v0l0.035-1.609c-0.142-0.817-0.409-1.569-0.802-2.258-0.392-0.695-0.814-1.048-1.267-1.058v0l-8.378-0.181-1.382 5.141c-0.188 0.383-1.102 0.556-2.742 0.521v0l-1.949-0.042c-0.693-0.015-1.73-0.011-3.111 0.013-1.381 0.017-2.421 0.018-3.121 0.002v0l-0.68-0.014c-0.26-0.006-0.67-0.008-1.23-0.007-0.56 0.008-0.997 0.008-1.31 0.002v0c-0.124-0.136-0.344-0.434-0.661-0.895zM361.877-17.892l-2.132 8.406 0.655 1.165 1.609 0.035c1.3 0.028 2.491-0.023 3.575-0.153 1.083-0.13 1.628-0.368 1.635-0.715v0l-2.845-14.095c-0.293-0.006-0.698 0.538-1.216 1.634-0.517 1.089-0.944 2.33-1.281 3.723zM386.406 6.583l-1.051-0.614 0.355-11.004c0.097-4.032 0.474-11.707 1.133-23.026v0l0.064-1.999c0.011-0.353 0.081-0.561 0.21-0.623v0l16.752 0.54c0.167 0.005 0.477 0.632 0.93 1.881 0.453 1.249 1.002 2.854 1.645 4.815 0.644 1.968 1.1 3.321 1.37 4.057v0l3.121 9.025 0.305-9.445c0.026-0.813 0.094-2.301 0.204-4.466 0.11-2.171 0.178-3.863 0.203-5.076v0c0.015-0.46 1.322-0.648 3.92-0.564v0c0.813 0.026 1.922 0.079 3.327 0.157 1.412 0.079 2.281 0.124 2.607 0.135v0l1.849 0.059c0.26 0.008 0.388 0.063 0.385 0.163v0c-0.046 4.514-0.204 10.976-0.475 19.384v0l-0.545 16.902c-0.127 0.416-0.653 0.609-1.579 0.579v0l-0.63-0.02c-0.846-0.027-2.089-0.051-3.73-0.071-1.64-0.02-2.883-0.043-3.729-0.07v0l-7.157-0.231c-0.224-0.094-0.661-1.132-1.31-3.113v0c-0.698-2.15-1.735-5.265-3.11-9.346-1.383-4.073-2.157-6.346-2.322-6.818v0c-0.031 0.953-0.083 2.379-0.158 4.277-0.081 1.898-0.137 3.327-0.168 4.287v0c-0.023 0.713-0.041 1.786-0.054 3.22-0.013 1.427-0.03 2.497-0.053 3.21v0l-0.099 3.068c-0.024 0.746-0.359 1.109-1.006 1.088v0zM423.734-29.352l0.003-0.1zM424.06 7.129v0c1.172-3.671 2.454-7.394 3.844-11.169 1.39-3.775 3.107-8.286 5.151-13.533 2.05-5.247 3.454-8.878 4.212-10.892v0c0.208-0.318 0.346-0.508 0.416-0.572v0l4.086 0.183c0.959 0.043 2.372 0.093 4.237 0.15 1.866 0.05 3.279 0.097 4.238 0.14v0l4.086 0.183c0.24 0.011 0.443 0.023 0.609 0.037 0.16 0.014 0.352 0.042 0.577 0.086 0.225 0.043 0.406 0.102 0.542 0.174 0.137 0.066 0.249 0.168 0.337 0.306 0.094 0.131 0.137 0.286 0.129 0.466v0l9.625 36.057c-0.015 0.326-0.141 0.544-0.379 0.654-0.245 0.109-0.691 0.149-1.337 0.12v0l-2.238-0.1c-0.653-0.029-1.619-0.063-2.898-0.1-1.279-0.044-2.245-0.081-2.898-0.11v0c-0.193-0.009-0.587-0.013-1.181-0.013-0.594 0-1.094-0.016-1.499-0.047-0.406-0.025-0.854-0.068-1.346-0.13-0.491-0.062-0.883-0.17-1.176-0.323-0.3-0.147-0.485-0.335-0.556-0.566v0l0.073-1.608c-0.123-0.82-0.373-1.578-0.749-2.276-0.376-0.704-0.79-1.066-1.243-1.087v0l-8.371-0.375-1.501 5.108c-0.197 0.378-1.115 0.531-2.753 0.457v0l-1.948-0.087c-0.693-0.031-1.729-0.051-3.11-0.06-1.381-0.015-2.421-0.038-3.12-0.069v0l-0.68-0.031c-0.26-0.012-0.67-0.023-1.229-0.035-0.56-0.005-0.997-0.015-1.31-0.029v0c-0.121-0.139-0.334-0.442-0.64-0.909zM443.941-15.243l-2.326 8.354 0.628 1.179 1.608 0.072c1.299 0.058 2.491 0.035 3.577-0.07 1.086-0.105 1.636-0.33 1.652-0.676v0l-2.519-14.157c-0.293-0.013-0.711 0.522-1.253 1.605-0.542 1.077-0.998 2.308-1.367 3.693zM466.946-9.189v0c0.124-2.237 0.491-4.276 1.102-6.118 0.603-1.836 1.36-3.38 2.27-4.631 0.904-1.245 1.973-2.337 3.207-3.277 1.234-0.946 2.491-1.688 3.769-2.224 1.285-0.536 2.654-0.961 4.107-1.274 1.459-0.306 2.815-0.495 4.068-0.565 1.259-0.07 2.528-0.07 3.806 0.001v0c0.945 0.053 1.865 0.147 2.758 0.283 0.894 0.13 1.898 0.326 3.012 0.588 1.12 0.269 2.158 0.641 3.113 1.115 0.962 0.474 1.875 1.042 2.74 1.704 0.865 0.656 1.603 1.485 2.215 2.487 0.612 1.002 1.031 2.12 1.256 3.355v0c0.054 0.47 0.14 1.807 0.258 4.011v0c-0.087 0.483-0.62 0.697-1.598 0.642v0c-1.391-0.077-3.416-0.22-6.076-0.428-2.652-0.214-4.644-0.358-5.975-0.432v0c-0.189-0.077-0.335-0.216-0.438-0.415-0.102-0.199-0.167-0.417-0.194-0.652-0.027-0.229-0.08-0.475-0.159-0.74-0.072-0.264-0.172-0.5-0.301-0.708-0.129-0.207-0.362-0.391-0.701-0.549-0.338-0.159-0.767-0.253-1.286-0.282v0c-0.686-0.038-1.301 0.045-1.847 0.248-0.546 0.21-1.001 0.475-1.366 0.795-0.358 0.321-0.674 0.767-0.946 1.34-0.278 0.565-0.491 1.084-0.637 1.557-0.146 0.473-0.274 1.076-0.381 1.811-0.108 0.735-0.176 1.312-0.207 1.732-0.03 0.426-0.065 0.985-0.103 1.676v0c-0.012 0.213-0.02 0.473-0.023 0.78 0.003 0.314 0.001 0.528-0.006 0.641v0l-0.04 0.729c-0.029 0.519-0.046 0.949-0.052 1.289-0.006 0.34 0.013 0.779 0.057 1.315 0.043 0.543 0.121 1.002 0.234 1.375 0.106 0.366 0.275 0.763 0.505 1.19 0.23 0.433 0.521 0.783 0.873 1.05 0.345 0.273 0.79 0.511 1.332 0.715 0.543 0.197 1.164 0.315 1.864 0.354v0c1.797 0.1 3.281 0.005 4.452-0.283v0l0.166-2.976-1.069-0.059-0.003 0.05-1.747-0.097c-0.133-0.007-0.367-0.01-0.7-0.009-0.334-0.005-0.604-0.014-0.81-0.025v0l-0.825-1.017 0.373-6.72c0.023-0.419 0.341-0.856 0.955-1.309v0l1.747 0.097c1.218 0.068 2.692 0.166 4.42 0.296 1.735 0.13 3.066 0.22 3.991 0.272v0l1.947 0.108c0.939 0.052 1.67 0.1 2.196 0.142 0.525 0.049 1.11 0.158 1.754 0.328 0.638 0.176 1.056 0.406 1.254 0.691v0c-0.118 2.13-0.341 5.226-0.667 9.287-0.319 4.062-0.53 7.011-0.632 8.848v0c-0.003 0.047 0 0.124 0.008 0.231 0.014 0.108 0.019 0.191 0.016 0.251v0l-0.03 0.54c-0.589 0.622-2.421 1.091-5.497 1.407-3.076 0.316-5.652 0.417-7.729 0.301v0l-0.629-0.035c-0.459-0.026-1.137-0.033-2.031-0.022-0.896 0.017-1.57 0.013-2.023-0.013v0c-6.53-0.363-11.432-2.388-14.705-6.075-3.267-3.687-4.731-8.586-4.392-14.697zM507.904 10.493v0l0.061-0.918c0.183-2.774 0.486-6.863 0.909-12.267 0.423-5.411 0.726-9.503 0.909-12.277v0l0.663-10.058 28.288 1.864-0.525 7.973c-0.003 0.047-0.011 0.166-0.024 0.359-0.013 0.2-0.022 0.329-0.025 0.389-0.004 0.067-0.019 0.186-0.044 0.358-0.031 0.165-0.069 0.279-0.113 0.343-0.044 0.064-0.107 0.153-0.188 0.269-0.081 0.115-0.17 0.196-0.266 0.243-0.103 0.04-0.235 0.075-0.398 0.104-0.169 0.029-0.35 0.037-0.543 0.024v0l-0.678-0.045c-4.198-0.277-8.018-0.592-11.463-0.946v0c-0.05 0.257-0.13 0.653-0.239 1.187-0.109 0.541-0.197 1.016-0.264 1.426-0.067 0.41-0.113 0.808-0.139 1.194v0l11.575 0.762c0.486 0.032 0.804 0.12 0.955 0.264 0.151 0.137 0.217 0.352 0.198 0.644v0c-0.005 0.08-0.02 0.209-0.046 0.388-0.025 0.179-0.04 0.308-0.045 0.388v0c-0.051 0.778-0.104 1.931-0.158 3.457-0.054 1.526-0.106 2.679-0.158 3.457v0c-0.068 0.323-0.209 0.477-0.421 0.463v0c-0.093-0.006-0.171-0.045-0.233-0.115v0c-5.139-0.078-8.94-0.198-11.401-0.361v0l-0.638-0.042-0.231 3.503c1.444 0.095 3.537 0.166 6.279 0.213 2.736 0.053 4.785 0.125 6.149 0.215v0c1.071 0.071 1.671 0.337 1.802 0.8v0l-0.122 1.846c-0.051 0.778-0.111 1.93-0.178 3.456-0.067 1.526-0.126 2.677-0.177 3.456v0c-0.053 0.812-0.406 1.196-1.058 1.152v0c-0.838-0.055-2.135-0.151-3.89-0.286-1.749-0.129-3.075-0.223-3.98-0.282v0c-2.335-0.154-5.678-0.314-10.03-0.481-4.352-0.16-7.5-0.297-9.443-0.412v0l-0.628-0.823c-0.037-0.457-0.051-0.752-0.042-0.884zM574.89 16.276v0c-0.386 0.325-1.153 0.477-2.302 0.457-1.142-0.02-2.543-0.143-4.204-0.369-1.661-0.22-2.549-0.334-2.661-0.342v0c-1.103-0.084-1.897-0.161-2.38-0.231v0l-2.433-0.184c-0.344-0.14-0.603-0.694-0.776-1.664-0.168-0.962-0.304-2.34-0.409-4.133-0.098-1.793-0.149-2.746-0.154-2.859v0c0.055-1.607-0.124-2.684-0.537-3.23-0.413-0.546-1.221-0.865-2.425-0.956v0l-1.067-0.081-0.899 11.856c-0.048 0.19-0.23 0.34-0.546 0.45-0.315 0.103-0.764 0.156-1.345 0.158-0.575-0.003-1.085-0.019-1.531-0.046-0.446-0.027-1.034-0.075-1.765-0.144-0.73-0.075-1.174-0.119-1.333-0.131v0l-3.5-0.265c-1.974-0.15-3.465-0.246-4.471-0.29v0c-0.218-0.117-0.436-0.247-0.653-0.39v0l2.75-36.246c0.034-0.452 0.7-0.629 1.996-0.53v0l21.179 1.606c3.669 0.379 6.401 1.465 8.197 3.26 1.789 1.8 2.569 4.206 2.341 7.218v0c-0.297 3.915-2.489 6.631-6.575 8.146v0c0.714 0.281 1.345 0.647 1.892 1.096 0.554 0.45 1.006 0.922 1.357 1.417 0.357 0.488 0.658 1.066 0.901 1.733 0.243 0.674 0.423 1.299 0.54 1.876 0.117 0.577 0.209 1.259 0.276 2.047 0.061 0.787 0.093 1.465 0.096 2.033 0.003 0.575 0.012 1.258 0.026 2.048 0.014 0.79 0.03 1.413 0.048 1.869v0l-0.162 2.143c0.027 0.263 0.149 0.636 0.366 1.121 0.217 0.491 0.347 0.852 0.389 1.083v0c-0.025 0.326-0.1 0.484-0.226 0.474zM556.476-11.607v0c-0.074 0.971-0.118 1.693-0.134 2.166-0.022 0.466 0.021 1.088 0.129 1.865 0.102 0.77 0.304 1.33 0.605 1.681v0c0.678 0.051 1.325 0.027 1.941-0.073 0.623-0.1 1.229-0.288 1.818-0.564 0.59-0.283 1.075-0.731 1.456-1.344 0.381-0.62 0.606-1.375 0.673-2.266v0c0.038-0.499-0.019-0.944-0.169-1.336-0.144-0.399-0.38-0.724-0.709-0.977-0.322-0.252-0.644-0.457-0.966-0.615-0.322-0.165-0.716-0.295-1.184-0.39-0.475-0.089-0.851-0.155-1.128-0.196-0.272-0.034-0.603-0.066-0.996-0.096v0l-0.578-0.044c-0.255 0.094-0.431 0.308-0.53 0.642-0.099 0.333-0.175 0.849-0.228 1.547z" opacity="1" transform="matrix(1,0,0,1,0,0)" fill="#3d9970" class="wordmark-text-0" data-fill-palette-color="primary" id="text-0"></path></svg></g></svg></g></svg></g></svg></g><g transform="matrix(1,0,0,1,126.29322993439838,0)"><svg viewBox="0 0 142.93354013120322 54.58774831150782" height="54.58774831150782" width="142.93354013120322"><g><svg xmlns="http://www.w3.org/2000/svg" xmlns:xlink="http://www.w3.org/1999/xlink" version="1.1" x="0" y="0" viewBox="0.08 31.717 100 38.191" enable-background="new 0 0 100 100" xml:space="preserve" width="142.93354013120322" height="54.58774831150782" class="icon-icon-0" data-fill-palette-color="accent" id="icon-0"><path d="M82.189 67.908l-0.001-34.691c0-0.829-0.671-1.5-1.5-1.5H19.47c-0.398 0-0.779 0.158-1.061 0.439s-0.439 0.663-0.439 1.061l0.001 34.691H0.08v2h100v-2H82.189zM22.789 37.597l0.557 7.946-2.375-0.238 0-9.528L22.789 37.597zM77.368 37.597l1.82-1.82 0 9.528-2.376 0.238L77.368 37.597zM74.693 54.354h-7.789l0.461-7.971h7.885L74.693 54.354zM76.759 46.302l2.43-0.243v9.606l-3.01-1.065L76.759 46.302zM75.303 45.633h-7.894l0.44-7.618h7.986L75.303 45.633zM66.657 45.633h-7.856l0.163-7.618h8.133L66.657 45.633zM66.614 46.383l-0.461 7.971h-7.539l0.171-7.971H66.614zM49.704 54.354h-7.41l-0.171-7.971h7.581V54.354zM50.454 46.383h7.581l-0.171 7.971h-7.41V46.383zM50.454 45.633v-7.618h7.76l-0.164 7.618H50.454zM49.704 45.633h-7.597l-0.164-7.618h7.76V45.633zM41.544 54.354h-7.539l-0.461-7.971h7.829L41.544 54.354zM41.357 45.633h-7.856l-0.44-7.618h8.133L41.357 45.633zM20.97 46.059l2.428 0.243 0.581 8.298-3.009 1.064V46.059zM24.908 46.383h7.885l0.461 7.971h-7.788L24.908 46.383zM32.75 45.633h-7.895l-0.533-7.618h7.987L32.75 45.633zM24.034 55.376l0.518 7.391-3.581 3.581 0-9.888L24.034 55.376zM33.297 55.104l0.417 7.202h-7.691l-0.504-7.202H33.297zM34.049 55.104h7.511l0.154 7.202h-7.249L34.049 55.104zM42.31 55.104h7.394v7.202h-7.24L42.31 55.104zM50.454 55.104h7.394l-0.154 7.202h-7.24V55.104zM58.598 55.104h7.511l-0.417 7.202h-7.249L58.598 55.104zM66.861 55.104h7.78l-0.504 7.202h-7.692L66.861 55.104zM76.125 55.376l3.064 1.084 0 9.888-3.582-3.581L76.125 55.376zM76.329 36.515h-8.057l0.823-1.798h9.032L76.329 36.515zM67.448 36.515h-8.246l0.497-1.798h8.572L67.448 36.515zM58.424 36.515h-7.97v-1.798h8.467L58.424 36.515zM49.704 34.717v1.798h-7.97l-0.497-1.798H49.704zM40.459 34.717l0.497 1.798H32.71l-0.823-1.798H40.459zM31.062 34.717l0.823 1.798h-8.058l-1.798-1.798H31.062zM21.531 67.908l4.103-4.103h48.892l4.104 4.103H21.531z" fill="#3d9970" data-fill-palette-color="accent"></path></svg></g></svg></g><g></g></svg></g><defs></defs></svg><rect width="395.52" height="98.1041340224984" fill="none" stroke="none" visibility="hidden"></rect></g></svg></g></svg>